<svg width="27" height="27" viewBox="0 0 27 27" fill="none" xmlns="http://www.w3.org/2000/svg">
<path d="M1 18.5C1 14.965 1 13.1962 2.09875 12.0987C3.19625 11 4.965 11 8.5 11H18.5C22.035 11 23.8038 11 24.9013 12.0987C26 13.1962 26 14.965 26 18.5C26 22.035 26 23.8038 24.9013 24.9013C23.8038 26 22.035 26 18.5 26H8.5C4.965 26 3.19625 26 2.09875 24.9013C1 23.8038 1 22.035 1 18.5Z" stroke="#31792E" stroke-width="2"/>
<path d="M6 11V8.5C6 6.51088 6.79018 4.60322 8.1967 3.1967C9.60322 1.79018 11.5109 1 13.5 1C15.4891 1 17.3968 1.79018 18.8033 3.1967C20.2098 4.60322 21 6.51088 21 8.5V11" stroke="#31792E" stroke-width="2" stroke-linecap="round"/>
</svg>
