<svg width="28" height="15" viewBox="0 0 28 15" fill="none" xmlns="http://www.w3.org/2000/svg">
<path d="M6.73433 9.345C6.27011 9.345 5.87772 9.167 5.55717 8.811C5.23662 8.455 5.07634 8.018 5.07634 7.5C5.07634 6.982 5.23662 6.545 5.55717 6.189C5.87772 5.833 6.27011 5.6545 6.73433 5.6535C7.19855 5.6525 7.59094 5.831 7.91149 6.189C8.23205 6.547 8.39232 6.984 8.39232 7.5C8.39232 8.016 8.23205 8.453 7.91149 8.811C7.59094 9.169 7.19855 9.3475 6.73433 9.3465M6.73433 15C4.86937 15 3.28097 14.2695 1.96912 12.8085C0.657272 11.3475 0.000898831 9.578 9.19991e-07 7.5C-0.000896991 5.422 0.655476 3.653 1.96912 2.193C3.28276 0.733 4.87117 0.002 6.73433 0C8.11711 0 9.36431 0.4175 10.4759 1.2525C11.5875 2.0865 12.3988 3.169 12.9097 4.5H25.3063L28 7.5L23.6995 12.231L21.3936 10.299L18.9598 12.288L16.5638 10.5H12.9097C12.3979 11.812 11.5866 12.89 10.4759 13.734C9.36521 14.578 8.11801 15 6.73433 15ZM6.73433 13.5C8.06055 13.5 9.19191 13.0555 10.1284 12.1665C11.065 11.2775 11.6648 10.222 11.9278 9H16.9921L18.9181 10.4505L21.4206 8.451L23.6038 10.284L26.1036 7.5L24.7567 6H11.9278C11.6657 4.777 11.0659 3.7215 10.1284 2.8335C9.19102 1.9455 8.05965 1.501 6.73433 1.5C5.25278 1.5 3.98448 2.0875 2.92944 3.2625C1.87439 4.4375 1.34687 5.85 1.34687 7.5C1.34687 9.15 1.87439 10.5625 2.92944 11.7375C3.98448 12.9125 5.25278 13.5 6.73433 13.5Z" fill="#31792E"/>
</svg>
