<svg width="30" height="30" viewBox="0 0 30 30" fill="none" xmlns="http://www.w3.org/2000/svg">
<path d="M20.7862 17.3637L21.3562 16.7974L20.0325 15.4674L19.465 16.0337L20.7862 17.3637ZM23.2675 16.5599L25.6562 17.8587L26.55 16.2112L24.1625 14.9137L23.2675 16.5599ZM26.115 20.4387L24.34 22.205L25.6612 23.5337L27.4362 21.7687L26.115 20.4387ZM23.2575 22.7724C21.445 22.9424 16.7575 22.7912 11.68 17.7437L10.3575 19.0725C15.8975 24.5812 21.1712 24.8512 23.4325 24.6399L23.2575 22.7724ZM11.68 17.7437C6.84122 12.9312 6.03872 8.88495 5.93872 7.1287L4.06622 7.23495C4.19122 9.44495 5.18497 13.93 10.3575 19.0725L11.68 17.7437ZM13.3987 10.0187L13.7575 9.6612L12.4375 8.33245L12.0787 8.6887L13.3987 10.0187ZM14.0425 5.11745L12.4675 3.01245L10.9662 4.13745L12.5412 6.2412L14.0425 5.11745ZM7.16622 2.5537L5.20372 4.5037L6.52622 5.8337L8.48747 3.8837L7.16622 2.5537ZM12.7387 9.3537C12.0762 8.6887 12.0762 8.6887 12.0762 8.6912H12.0737L12.07 8.6962C12.0106 8.75609 11.9574 8.82184 11.9112 8.89245C11.8437 8.99245 11.77 9.1237 11.7075 9.28995C11.5553 9.71911 11.5174 10.1805 11.5975 10.6287C11.765 11.71 12.51 13.1387 14.4175 15.0362L15.74 13.7062C13.9537 11.9312 13.5287 10.8512 13.45 10.3412C13.4125 10.0987 13.4512 9.9787 13.4625 9.9512C13.47 9.93453 13.47 9.93203 13.4625 9.9437C13.4513 9.96095 13.4388 9.97725 13.425 9.99245L13.4125 10.0049L13.4 10.0162L12.7387 9.3537ZM14.4175 15.0362C16.3262 16.9337 17.7625 17.6737 18.845 17.8387C19.3987 17.9237 19.845 17.8562 20.1837 17.7299C20.3735 17.6605 20.5508 17.5609 20.7087 17.4349L20.7712 17.3787L20.78 17.3712L20.7837 17.3674L20.785 17.365C20.785 17.365 20.7862 17.3637 20.125 16.6987C19.4625 16.0337 19.4662 16.0324 19.4662 16.0324L19.4687 16.03L19.4712 16.0274L19.4787 16.0212L19.4912 16.0087L19.5387 15.9712C19.5504 15.9637 19.5475 15.9645 19.53 15.9737C19.4987 15.985 19.3762 16.0237 19.13 15.9862C18.6125 15.9062 17.525 15.4812 15.74 13.7062L14.4175 15.0362ZM12.4675 3.0112C11.1925 1.3112 8.68747 1.0412 7.16622 2.5537L8.48747 3.8837C9.15247 3.22245 10.3325 3.2912 10.9662 4.13745L12.4675 3.0112ZM5.93997 7.12995C5.91497 6.69745 6.11372 6.24495 6.52622 5.83495L5.20247 4.50495C4.53122 5.17245 4.00247 6.11745 4.06622 7.23495L5.93997 7.12995ZM24.34 22.205C23.9975 22.5474 23.6275 22.74 23.2587 22.7737L23.4325 24.6399C24.3512 24.5537 25.1025 24.0912 25.6625 23.5349L24.34 22.205ZM13.7575 9.6612C14.9887 8.43745 15.08 6.5037 14.0437 5.1187L12.5425 6.24245C13.0462 6.9162 12.9712 7.79995 12.4362 8.3337L13.7575 9.6612ZM25.6575 17.86C26.6787 18.4149 26.8375 19.7224 26.1162 20.4399L27.4387 21.7687C29.1137 20.1025 28.5975 17.3237 26.5512 16.2125L25.6575 17.86ZM21.3562 16.7987C21.8362 16.3212 22.6087 16.2037 23.2687 16.5612L24.1637 14.915C22.8087 14.1775 21.1287 14.3812 20.0337 15.4687L21.3562 16.7987Z" fill="#31792E"/>
</svg>
